<?xml version="1.0" encoding="UTF-8"?>
<svg width="100%" height="100%" viewBox="0 0 300 300" version="1.1" xmlns="http://www.w3.org/2000/svg">
    <title>coastal-event</title>
    <g id="coastal-event" fill="black" fill-rule="nonzero">
 <path d="m73.207 160.08c12.727-47.789 39.284-83.1 89.102-81.043 15.998 0.752 28.758 11.031 33.823 24.845 0 0-4.082-1.588-9.722-0.844-15.579 1.853-28.42 24.818-28.42 48.539 0 23.722 14.052 46.527 30.623 46.527 16.572 0 19.88-18.356 26.642-37.275 6.521-18.247 23.649-14.191 23.649-14.191s-8.647 9.315-6.729 23.668c1.402 10.49 10.096 23.399 31.939 27.435 6.044 1.117 9.891 7.661 9.824 11.359-0.109 5.971-4.518 10.992-12.18 11.651-7.512-0.258-22.711-3.836-36.353-21.755-6.911-9.078-9.652 21.822-39.224 21.546-27.81-0.259-32.898-32.681-71.212-32.698-19.274 0-27.19 8.481-47.957 22.247-12.247 8.118-20.689 10.985-28.294 10.951-8.9643-0.303-12.619-6.49-12.657-12.815-0.038-6.326 5.8767-10.225 11.205-10.825 9.1811-2.074 29.372-12.652 35.941-37.322z"/>
</g></svg>
