<?xml version="1.0" encoding="UTF-8"?>
<svg width="100%" height="100%" viewBox="0 0 300 300" version="1.1" xmlns="http://www.w3.org/2000/svg">
 <title>snow-ice</title>
     <g id="snow-ice" fill="black">
 <path id="snow-ice" d="m205.61 45.285a8 8 0 0 0-6.832 4.0058l-12.795 22.228-5.843-17.508a8 8 0 0 0-10.121-5.0566 8 8 0 0 0-5.057 10.121l10.342 30.988-25.25 43.852-25.233-43.596 10.387-31.352a8 8 0 0 0-5.078-10.111 8 8 0 0 0-10.109 5.0781l-5.92 17.863-12.965-22.402a8 8 0 0 0-10.619-3.086 8 8 0 0 0-0.459 0.2461 8 8 0 0 0-2.9024 10.936l12.818 22.082-17.924-3.6621a8 8 0 0 0-9.4395 6.2363 8 8 0 0 0 6.2364 9.4395l31.881 6.5156 25.394 43.748h-50.82l-21.633-24.006a8 8 0 0 0-11.299-0.588 8 8 0 0 0-0.586 11.299l11.98 13.295h-25.338a8 8 0 0 0-8 8 8 8 0 0 0 0.166 1.627 8 8 0 0 0 8.0215 7.244l25.646-0.188-12.158 13.893a8 8 0 0 0 0.752 11.289 8 8 0 0 0 11.289-0.752l21.516-24.584 50.41-0.367-25.291 43.343-32.38 6.498a8 8 0 0 0-6.2695 9.418 8 8 0 0 0 9.418 6.27l18.449-3.701-13.045 22.355a8 8 0 0 0 2.8789 10.942 8 8 0 0 0 0.209 0.117 8 8 0 0 0 0.01 0 8 8 0 0 0 0.01 0 8 8 0 0 0 0.373 0.228 8 8 0 0 0 10.927-2.941l12.55-21.799 5.534 16.897a8 8 0 0 0 10.089 5.113 8 8 0 0 0 5.116-10.092l-10.004-30.557 25.448-44.197 25.266 43.653-10.321 31.277a8 8 0 0 0 5.09 10.103 8 8 0 0 0 10.106-5.089l5.857-17.748 12.92 22.324a8 8 0 0 0 10.93 2.918 8 8 0 0 0 0.322-0.198 8 8 0 0 0 0.08-0.05 8 8 0 0 0 0.01 0 8 8 0 0 0 2.603-10.756l-12.875-22.18 18.092 3.672a8 8 0 0 0 9.432-6.248 8 8 0 0 0 0.16-1.654 8 8 0 0 0-6.408-7.778l-32.016-6.498-25.428-43.804h50.262l21.93 24.693a8 8 0 0 0 11.294 0.67 8 8 0 0 0 0.669-11.293l-12.494-14.07h25.882a8 8 0 0 0 7.95-7.09 8 8 0 0 0 0-0.01 8 8 0 0 0 0.173-1.709 8 8 0 0 0-8.058-7.941l-25.204 0.183 11.751-13.234a8 8 0 0 0-0.669-11.295 8 8 0 0 0-5.212-2.018 8 8 0 0 0-6.082 2.688l-21.329 24.015-50.728 0.37 25.475-43.659 31.875-6.5839a8 8 0 0 0 6.38-7.8399 8 8 0 0 0-0.166-1.6133 8 8 0 0 0-9.453-6.2168l-17.799 3.6758 12.809-21.951a8 8 0 0 0 1.092-4.0878 8 8 0 0 0-3.971-6.8536 8 8 0 0 0-0.375-0.205 8 8 0 0 0-0.209-0.125 8 8 0 0 0-4.094-1.0664z"/>
 </g>
</svg>
