<?xml version="1.0" encoding="UTF-8"?>
<svg width="100%" height="100%" viewBox="0 0 300 300" version="1.1" xmlns="http://www.w3.org/2000/svg">
 <title>fog</title>
     <g id="fog" fill="black">
 <path id="fog" d="m99.344 55.822c-15.525-0.169-15.572 18.199 0 18.209h151.91c13.19-0.144 13.41-18.209-0.42-18.209h-151.49zm-25.655 28.627c-13.909-0.123-13.961 13.588 0 13.588h136.02c11.83-0.1 12.08-13.588-0.28-13.588h-135.74zm-30.718 24.011c-15.525-0.17-15.572 18.2 0 18.21h151.91c13.19-0.14 13.41-18.21-0.42-18.21h-151.49zm57.649 28.62c-13.91-0.12-13.962 13.59 0 13.59h136.02c11.83-0.1 12.08-13.59-0.28-13.59h-135.74zm-54.058 24.01c-15.524-0.17-15.572 18.2 0 18.21h151.91c13.19-0.14 13.41-18.21-0.42-18.21h-151.49zm58.168 28.63c-15.524-0.17-15.571 18.2 0 18.21h151.91c13.19-0.14 13.41-18.21-0.42-18.21h-151.49zm-41.093 28.63c-13.909-0.12-13.961 13.59 0 13.59h136.02c11.83-0.1 12.08-13.59-0.28-13.59h-135.74z" style="stroke-width:1.0117"/>
</g></svg>
