<?xml version="1.0" encoding="UTF-8"?>
<svg width="100%" height="100%" viewBox="0 0 300 300" version="1.1" xmlns="http://www.w3.org/2000/svg">
 <title>rain</title>
     <g id="rain" fill="black">
 <path id="rain" d="m231.3 53.634c-0.359-0.014-0.727 0.02-1.102 0.1035-14.868 3.3373-51.631 12.394-61.357 22.34-12.28 12.558-12.055 32.696 0.504 44.976 12.558 12.28 32.694 12.055 44.974-0.504 9.726-9.946 17.958-46.902 20.961-61.841 0.53-2.6313-1.467-4.9784-3.98-5.0742zm-102.29 77.209c-0.406-0.01-0.825 0.02-1.248 0.118-16.006 3.609-54.214 13.102-64.395 23.513-12.981 13.276-12.742 34.56 0.5332 47.541 13.274 12.98 34.558 12.742 47.539-0.533 10.183-10.413 18.814-48.824 22.065-64.906 0.601-2.976-1.653-5.628-4.494-5.733zm113.15 25.487c-0.358-0.01-0.726 0.02-1.099 0.101-16.659 3.699-61.492 14.547-73.165 26.485-14.419 14.745-14.155 38.389 0.59 52.808 14.747 14.42 38.392 14.156 52.811-0.59 11.673-11.937 21.515-57.003 24.84-73.74 0.522-2.628-1.469-4.966-3.977-5.064z"/>
</g></svg>
