<?xml version="1.0" encoding="UTF-8"?>
<svg width="100%" height="100%" version="1.1" viewBox="0 0 300 300" xmlns="http://www.w3.org/2000/svg">
 <title>high-temperature</title>
 <g id="high-temperature" transform="translate(-23.766 -5.3548)">
  <path d="m126.56 139.9a8 8 0 0 0-7.96 8.04l0.27 57.71a24 24 0 0 0-16.27 23.13 24 24 0 0 0 24.19 23.6 24 24 0 0 0 23.8-24v-0.8a24 24 0 0 0-15.7-21.73l-0.28-57.99a8 8 0 0 0-8.04-7.96z"/>
  <path d="m223.76 31.787a8 8 0 0 0-7.99 8.002v31.018h-31.02a8 8 0 0 0-8 8.002 8 8 0 0 0 8 7.998h31.02v31.012a8 8 0 0 0 8 8 8 8 0 0 0 8-8v-31.016l31.02-0.01a8 8 0 0 0 7.99-8.002 8 8 0 0 0-8-7.998l-31.01 0.01v-31.018a8 8 0 0 0-8.01-7.998z"/>
  <path d="m144.56 195.7c0 2.52 1.19 4.89 3.21 6.4 8.83 6.12 12.63 14.94 13 25.68v1.14c0 18.66-15.05 33.84-33.72 33.99-18.66 0.16-33.967-14.76-34.28-33.43-0.183-10.96 4.132-20.92 12.94-27.45 2-1.51 3.19-3.88 3.19-6.4v-127.13c0.1-16.439 8.74-21.825 17.55-21.797 8.8 0.03 17.67 5.634 17.97 22.115m16-0.31c0-24.146-17.15-36.661-33.86-36.721h-0.03c-16.71-0.061-33.663 12.488-33.663 36.593v0.03l0.02 123.75h-0.02c-10.486 9.66-16.347 23.34-16.109 37.6 0.459 27.45 22.961 49.39 50.412 49.16 27.45-0.23 49.58-22.54 49.58-50v-1.67c-0.45-13.43-6.3-26.1-16.19-35.17"/>
 </g>
</svg>
