<?xml version="1.0" encoding="UTF-8"?>
<svg width="100%" height="100%" viewBox="0 0 300 300" version="1.1" xmlns="http://www.w3.org/2000/svg">
 <title>wind</title>
     <g id="wind" fill="black">
 <path d="m58.047 65.938v-6.6125c0-12.041-17.823-11.867-17.823-0.7638v190.82c-0.04 12.614 17.823 12.443 17.823-0.212l0.0664-173.4 39.627 50.649 132.72 38.554c7.752 1.615 14.06-1.108 20.547-6.515 12.891-12.96 17.48-32.794 10.759-46.645-2.031-3.56-5.622-7.955-12.685-11.246l-124.82-58.396zm81.099-3.6411 28.447 12.816c-19.807 6.4009-29.242 34.174-20.989 51.72l-28.484-9.116c-8.673-20.629-1.707-48.446 21.026-55.42zm-34.439-4.87c-12.215 5.3625-18.022 25.728-13.581 41.437l-33.079-28.696zm86.519 29.069 25.345 11.772c-16.977 4.1441-25.14 35.682-15.948 47.246l-26.971-9.539c-10.728-15.399-0.745-45.872 17.574-49.479zm55.115 24.663c4.554 1.441 8.98 7.291 8.377 17.926-0.275 6.887-7.534 26.06-20.366 26.341-3.821 0.08-9.487-0.805-12.196-6.024-7.456-14.736 5.445-44.174 24.185-38.243z"/>
</g></svg>
